<svg xmlns="http://www.w3.org/2000/svg" width="140" height="140"><path style="stroke:none;fill-rule:nonzero;fill:#fff;fill-opacity:1" d="M70 1.75h913.5c37.695 0 68.25 30.555 68.25 68.25v913.5c0 37.695-30.555 68.25-68.25 68.25H70c-37.695 0-68.25-30.555-68.25-68.25V70C1.75 32.305 32.305 1.75 70 1.75Zm0 0"/><path style="stroke:none;fill-rule:nonzero;fill:#4285f4;fill-opacity:1" d="M103.602 70.793c0-2.48-.227-4.863-.637-7.156H70v13.539h18.836a16.09 16.09 0 0 1-6.984 10.562v8.785h11.312c6.617-6.097 10.438-15.066 10.438-25.726Zm0 0"/><path style="stroke:none;fill-rule:nonzero;fill:#34a853;fill-opacity:1" d="M70 105c9.45 0 17.375-3.133 23.164-8.48l-11.312-8.782C78.719 89.84 74.71 91.082 70 91.082c-9.117 0-16.836-6.16-19.582-14.434H38.723v9.067A34.987 34.987 0 0 0 70 105Zm0 0"/><path style="stroke:none;fill-rule:nonzero;fill:#fbbc04;fill-opacity:1" d="M50.418 76.648A21.032 21.032 0 0 1 49.32 70c0-2.309.399-4.55 1.098-6.648v-9.067H38.723A35.007 35.007 0 0 0 35 70a34.966 34.966 0 0 0 3.723 15.715l11.691-9.067Zm0 0"/><path style="stroke:none;fill-rule:nonzero;fill:#e94235;fill-opacity:1" d="M70 48.918c5.137 0 9.75 1.77 13.379 5.238l10.039-10.043C87.355 38.473 79.434 35 70 35c-13.684 0-25.516 7.84-31.277 19.285l11.691 9.067C53.168 55.074 60.883 48.918 70 48.918Zm0 0"/><path style="fill:none;stroke-width:1;stroke-linecap:butt;stroke-linejoin:miter;stroke:#747775;stroke-opacity:1;stroke-miterlimit:4" d="M20 .5C30.77.5 39.5 9.23 39.5 20S30.77 39.5 20 39.5.5 30.77.5 20 9.23.5 20 .5Zm0 0" transform="scale(3.5)"/></svg>